<?xml version="1.0" encoding="UTF-8"?> <svg xmlns="http://www.w3.org/2000/svg" xmlns:xlink="http://www.w3.org/1999/xlink" width="315.427" height="70" viewBox="0 0 315.427 70"><defs><style>.a{fill:#000;}.b{clip-path:url(#a);}</style><clipPath id="a"><rect class="a" width="315.427" height="70"></rect></clipPath></defs><g transform="translate(0 0)"><g class="b" transform="translate(0 0)"><path class="a" d="M85.994,29.8A25.058,25.058,0,0,1,90.1,29.51a7.753,7.753,0,0,1,4.149.792,3.054,3.054,0,0,1,1.686,2.753,3.179,3.179,0,0,1-2.314,3v.033a3.531,3.531,0,0,1,2.8,3.466,3.775,3.775,0,0,1-1.462,2.985c-1.023.813-2.734,1.266-5.527,1.266a25.815,25.815,0,0,1-3.442-.2Zm3.147,5.379h1.044c1.667,0,2.566-.689,2.566-1.734,0-1.061-.819-1.622-2.252-1.622a8.507,8.507,0,0,0-1.358.084Zm0,6.237a10.193,10.193,0,0,0,1.231.041c1.435,0,2.711-.571,2.711-2.026,0-1.415-1.276-1.977-2.854-1.977H89.141Z" transform="translate(-5.545 -1.903)"></path><path class="a" d="M107.868,37.733H102.7v3.339h5.77v2.6H99.505V29.62h8.675v2.6H102.7v2.922h5.167Z" transform="translate(-6.416 -1.91)"></path><path class="a" d="M111.6,43.675V29.62h3.714l2.918,5.15a40.1,40.1,0,0,1,2.289,4.814h.064a52.154,52.154,0,0,1-.271-5.877V29.62h2.923V43.675H119.9l-3-5.42a51.77,51.77,0,0,1-2.44-4.963l-.065.017c.084,1.859.126,3.842.126,6.132v4.234Z" transform="translate(-7.197 -1.91)"></path><path class="a" d="M129.474,32.288H125.7V29.62h10.8v2.668h-3.835V43.675h-3.188Z" transform="translate(-8.106 -1.91)"></path><path class="a" d="M151.509,36.489c0,4.607-2.8,7.4-6.9,7.4-4.171,0-6.606-3.145-6.606-7.15,0-4.214,2.686-7.364,6.839-7.364,4.317,0,6.67,3.235,6.67,7.116m-10.154.185c0,2.751,1.29,4.693,3.42,4.693s3.377-2.046,3.377-4.78c0-2.52-1.21-4.687-3.4-4.687-2.145,0-3.4,2.045-3.4,4.774" transform="translate(-8.899 -1.894)"></path><path class="a" d="M159.174,29.8a28.065,28.065,0,0,1,4.293-.292c2.667,0,4.4.48,5.753,1.5a6.217,6.217,0,0,1,2.377,5.3A7.111,7.111,0,0,1,169.264,42c-1.478,1.231-3.736,1.812-6.482,1.812a28.821,28.821,0,0,1-3.607-.2Zm3.193,11.467a5.948,5.948,0,0,0,1.1.061c2.88.021,4.755-1.561,4.755-4.918.025-2.916-1.685-4.465-4.418-4.465a6.9,6.9,0,0,0-1.438.126Z" transform="translate(-10.264 -1.903)"></path><path class="a" d="M183.1,37.733h-5.171v3.339h5.781v2.6h-8.966V29.62h8.671v2.6h-5.487v2.922H183.1Z" transform="translate(-11.268 -1.91)"></path><path class="a" d="M193.8,29.62h3.169V38.5c0,4-1.917,5.4-5.006,5.4a8.331,8.331,0,0,1-2.314-.331L190,41.005a5.178,5.178,0,0,0,1.627.248c1.335,0,2.169-.6,2.169-2.792Z" transform="translate(-12.229 -1.91)"></path><path class="a" d="M208.794,37.733h-5.17v3.339H209.4v2.6h-8.968V29.62h8.677v2.6h-5.484v2.922h5.17Z" transform="translate(-12.925 -1.91)"></path><path class="a" d="M212.4,40.387a8.145,8.145,0,0,0,3.525.874c1.459,0,2.227-.6,2.227-1.518,0-.879-.661-1.379-2.352-1.981-2.333-.816-3.858-2.108-3.858-4.153,0-2.4,2-4.235,5.315-4.235a8.664,8.664,0,0,1,3.589.709l-.71,2.566a6.667,6.667,0,0,0-2.942-.666c-1.376,0-2.039.627-2.039,1.352,0,.9.789,1.295,2.6,1.988,2.482.914,3.649,2.206,3.649,4.186,0,2.359-1.814,4.379-5.674,4.379a9.16,9.16,0,0,1-3.978-.875Z" transform="translate(-13.655 -1.894)"></path><path class="a" d="M227.382,29.62v8.093c0,2.416.917,3.644,2.542,3.644,1.667,0,2.589-1.162,2.589-3.644V29.62h3.171V37.5c0,4.337-2.193,6.4-5.862,6.4-3.548,0-5.632-1.957-5.632-6.44V29.62Z" transform="translate(-14.457 -1.91)"></path><path class="a" d="M239.281,40.387a8.121,8.121,0,0,0,3.522.874c1.458,0,2.233-.6,2.233-1.518,0-.879-.674-1.379-2.355-1.981-2.34-.816-3.861-2.108-3.861-4.153,0-2.4,2-4.235,5.317-4.235a8.659,8.659,0,0,1,3.588.709l-.712,2.566a6.661,6.661,0,0,0-2.94-.666c-1.371,0-2.041.627-2.041,1.352,0,.9.792,1.295,2.606,1.988,2.484.914,3.652,2.206,3.652,4.186,0,2.359-1.815,4.379-5.673,4.379a9.163,9.163,0,0,1-3.981-.875Z" transform="translate(-15.388 -1.894)"></path><path class="a" d="M266.029,43.264a9,9,0,0,1-3.608.624c-4.858,0-7.361-3.042-7.361-7.044,0-4.8,3.418-7.47,7.672-7.47a8.271,8.271,0,0,1,3.459.628l-.642,2.523a6.918,6.918,0,0,0-2.666-.517c-2.526,0-4.485,1.517-4.485,4.644,0,2.82,1.666,4.586,4.5,4.586a7.814,7.814,0,0,0,2.647-.457Z" transform="translate(-16.447 -1.894)"></path><path class="a" d="M272.4,40.066l-1,3.609H268.11L272.4,29.62h4.169l4.364,14.055h-3.424l-1.085-3.609Zm3.565-2.374-.876-2.983c-.248-.836-.5-1.876-.707-2.711h-.041c-.207.835-.422,1.9-.647,2.711l-.834,2.983Z" transform="translate(-17.289 -1.91)"></path><path class="a" d="M283.573,29.8a27.637,27.637,0,0,1,4.235-.292c2.084,0,3.544.307,4.547,1.1a3.578,3.578,0,0,1,1.295,2.943,3.724,3.724,0,0,1-2.486,3.46v.065a3.552,3.552,0,0,1,1.882,2.628c.436,1.581.872,3.417,1.145,3.96h-3.257a18.561,18.561,0,0,1-.976-3.273c-.373-1.748-.985-2.234-2.276-2.251h-.961v5.524h-3.149Zm3.149,6.046h1.255c1.583,0,2.521-.791,2.521-2.024,0-1.291-.873-1.939-2.331-1.958a8.625,8.625,0,0,0-1.444.1Z" transform="translate(-18.286 -1.903)"></path><path class="a" d="M300.361,40.066l-1,3.609H296.07l4.291-14.055h4.176l4.357,14.055h-3.421l-1.081-3.609Zm3.57-2.374-.874-2.983c-.251-.836-.5-1.876-.712-2.711h-.039c-.211.835-.42,1.9-.646,2.711l-.836,2.983Z" transform="translate(-19.092 -1.91)"></path><path class="a" d="M321.361,43.264a8.517,8.517,0,0,1-3.315.607l-.4.7a1.761,1.761,0,0,1,1.528,1.712c0,1.44-1.3,1.92-2.483,1.92a3.893,3.893,0,0,1-1.8-.394l.419-1.294a2.513,2.513,0,0,0,1.168.292c.42,0,.75-.145.75-.524,0-.418-.477-.648-1.646-.771l.813-1.731c-3.965-.52-6.007-3.315-6.007-6.941,0-4.8,3.424-7.47,7.673-7.47a8.321,8.321,0,0,1,3.466.628l-.649,2.523a6.913,6.913,0,0,0-2.673-.517c-2.519,0-4.478,1.517-4.478,4.644,0,2.82,1.671,4.586,4.5,4.586a7.829,7.829,0,0,0,2.65-.457Z" transform="translate(-20.015 -1.894)"></path><path class="a" d="M327.756,40.066l-1,3.609h-3.3l4.3-14.055h4.174l4.355,14.055h-3.42l-1.082-3.609Zm3.57-2.374-.881-2.983c-.25-.836-.5-1.876-.709-2.711H329.7c-.21.835-.418,1.9-.65,2.711l-.829,2.983Z" transform="translate(-20.858 -1.91)"></path><path class="a" d="M92.514,15.067h-4.39V18.5h4.91v1.749h-7.04V8.583h6.78v1.747h-4.65v3.015h4.39Z" transform="translate(-5.545 -0.553)"></path><path class="a" d="M95.261,18.495a4.751,4.751,0,0,0,2.165.609c.935,0,1.347-.383,1.347-.935,0-.569-.347-.865-1.385-1.229-1.646-.575-2.34-1.469-2.32-2.459,0-1.486,1.23-2.647,3.187-2.647a4.972,4.972,0,0,1,2.225.5l-.413,1.51a3.774,3.774,0,0,0-1.777-.486c-.76,0-1.176.361-1.176.881,0,.536.393.8,1.47,1.177,1.52.557,2.229,1.329,2.25,2.575,0,1.524-1.195,2.65-3.433,2.65a5.425,5.425,0,0,1-2.555-.608Z" transform="translate(-6.116 -0.763)"></path><path class="a" d="M109.207,20.191a6.135,6.135,0,0,1-2.387.453,4.061,4.061,0,0,1-4.344-4.308,4.359,4.359,0,0,1,4.69-4.5,5.354,5.354,0,0,1,2.063.4l-.384,1.6a3.691,3.691,0,0,0-1.609-.329,2.517,2.517,0,0,0-2.583,2.733,2.5,2.5,0,0,0,2.583,2.714,4.132,4.132,0,0,0,1.676-.33Z" transform="translate(-6.608 -0.763)"></path><path class="a" d="M119.076,16.16a4.174,4.174,0,0,1-4.325,4.485,4.074,4.074,0,0,1-4.217-4.345,4.161,4.161,0,0,1,4.358-4.465,4.043,4.043,0,0,1,4.185,4.325m-6.343.09c0,1.627.8,2.854,2.088,2.854,1.212,0,2.062-1.195,2.062-2.892,0-1.316-.589-2.819-2.041-2.819-1.508,0-2.109,1.458-2.109,2.856" transform="translate(-7.128 -0.763)"></path><rect class="a" width="2.143" height="12.283" transform="translate(113.68 7.407)"></rect><path class="a" d="M132.706,18.427a13.067,13.067,0,0,0,.125,2.027H130.9l-.137-.936h-.051a3.118,3.118,0,0,1-2.488,1.126,2.5,2.5,0,0,1-2.648-2.51c0-2.129,1.882-3.2,5-3.18v-.137c0-.558-.227-1.475-1.713-1.475a4.437,4.437,0,0,0-2.265.625l-.417-1.386a6.047,6.047,0,0,1,3.044-.747c2.7,0,3.477,1.719,3.477,3.547Zm-2.077-2.091c-1.5-.036-2.936.294-2.936,1.574a1.117,1.117,0,0,0,1.207,1.211,1.73,1.73,0,0,0,1.664-1.159,1.556,1.556,0,0,0,.065-.464Z" transform="translate(-8.098 -0.763)"></path><path class="a" d="M139.524,8.735a18.079,18.079,0,0,1,3.253-.245,5.236,5.236,0,0,1,3.434.954,3.266,3.266,0,0,1,1.144,2.573,3.529,3.529,0,0,1-1,2.649,5.124,5.124,0,0,1-3.676,1.245,6.513,6.513,0,0,1-1.044-.065v4.393h-2.107Zm2.107,5.428a4.185,4.185,0,0,0,1.044.091c1.586,0,2.551-.78,2.551-2.151,0-1.294-.9-1.983-2.365-1.983a5.987,5.987,0,0,0-1.23.1Z" transform="translate(-8.997 -0.547)"></path><path class="a" d="M149.512,14.747c0-1.143-.019-1.954-.069-2.723h1.85l.07,1.615h.073a2.506,2.506,0,0,1,2.3-1.8,2.658,2.658,0,0,1,.5.051V13.9a2.91,2.91,0,0,0-.62-.069,1.877,1.877,0,0,0-1.908,1.606,3.452,3.452,0,0,0-.069.66v4.36h-2.126Z" transform="translate(-9.637 -0.763)"></path><path class="a" d="M164.013,16.16a4.175,4.175,0,0,1-4.327,4.485,4.075,4.075,0,0,1-4.219-4.345,4.163,4.163,0,0,1,4.36-4.465,4.045,4.045,0,0,1,4.185,4.325m-6.349.09c0,1.627.8,2.854,2.094,2.854,1.212,0,2.055-1.195,2.055-2.892,0-1.316-.588-2.819-2.04-2.819-1.5,0-2.109,1.458-2.109,2.856" transform="translate(-10.025 -0.763)"></path><path class="a" d="M166.607,20.188V13.351h-1.142V11.758h1.142v-.4c0-2.265,1.574-3.649,4.081-3.649a4.943,4.943,0,0,1,2.321.541l-.461,1.609a3.854,3.854,0,0,0-1.86-.453,1.773,1.773,0,0,0-1.969,2.006v.342h5.037v8.43h-2.148V13.351h-2.871v6.837Z" transform="translate(-10.67 -0.497)"></path><path class="a" d="M176.552,18.495a4.759,4.759,0,0,0,2.162.609c.936,0,1.348-.383,1.348-.935,0-.569-.348-.865-1.385-1.229-1.637-.575-2.331-1.469-2.315-2.459,0-1.486,1.229-2.647,3.179-2.647a5.039,5.039,0,0,1,2.239.5l-.417,1.51a3.788,3.788,0,0,0-1.786-.486c-.755,0-1.171.361-1.171.881,0,.536.392.8,1.473,1.177,1.522.557,2.227,1.329,2.246,2.575,0,1.524-1.195,2.65-3.425,2.65a5.383,5.383,0,0,1-2.556-.608Z" transform="translate(-11.358 -0.763)"></path><path class="a" d="M184.06,18.495a4.783,4.783,0,0,0,2.161.609c.936,0,1.351-.383,1.351-.935,0-.569-.341-.865-1.384-1.229-1.639-.575-2.333-1.469-2.317-2.459,0-1.486,1.227-2.647,3.184-2.647a5.009,5.009,0,0,1,2.233.5l-.418,1.51a3.772,3.772,0,0,0-1.779-.486c-.763,0-1.177.361-1.177.881,0,.536.4.8,1.473,1.177,1.52.557,2.227,1.329,2.249,2.575,0,1.524-1.2,2.65-3.427,2.65a5.408,5.408,0,0,1-2.56-.608Z" transform="translate(-11.842 -0.763)"></path><path class="a" d="M194.062,9.447a1.193,1.193,0,1,1-1.193-1.155,1.127,1.127,0,0,1,1.193,1.155M191.8,11.8h2.145v8.43H191.8Z" transform="translate(-12.36 -0.534)"></path><path class="a" d="M204.441,16.16a4.174,4.174,0,0,1-4.325,4.485A4.074,4.074,0,0,1,195.9,16.3a4.163,4.163,0,0,1,4.359-4.465,4.045,4.045,0,0,1,4.187,4.325m-6.346.09c0,1.627.8,2.854,2.089,2.854,1.212,0,2.061-1.195,2.061-2.892,0-1.316-.59-2.819-2.042-2.819-1.506,0-2.108,1.458-2.108,2.856" transform="translate(-12.632 -0.763)"></path><path class="a" d="M206.831,14.533c0-.966-.018-1.779-.069-2.509h1.872l.1,1.268h.052a3.038,3.038,0,0,1,2.68-1.457c1.473,0,2.993.958,2.993,3.618v5h-2.128V15.692c0-1.211-.447-2.125-1.6-2.125a1.78,1.78,0,0,0-1.66,1.251,2.075,2.075,0,0,0-.088.688v4.95h-2.146Z" transform="translate(-13.333 -0.763)"></path><path class="a" d="M223.812,18.427a13.466,13.466,0,0,0,.123,2.027h-1.927l-.133-.936h-.054a3.122,3.122,0,0,1-2.488,1.126,2.509,2.509,0,0,1-2.654-2.51c0-2.129,1.891-3.2,5.005-3.18v-.137c0-.558-.232-1.475-1.717-1.475a4.463,4.463,0,0,0-2.265.625l-.413-1.386a6.041,6.041,0,0,1,3.046-.747c2.7,0,3.477,1.719,3.477,3.547Zm-2.078-2.091c-1.5-.036-2.941.294-2.941,1.574A1.119,1.119,0,0,0,220,19.121a1.731,1.731,0,0,0,1.664-1.159,1.6,1.6,0,0,0,.067-.464Z" transform="translate(-13.972 -0.763)"></path><rect class="a" width="2.151" height="12.283" transform="translate(211.983 7.407)"></rect><path class="a" d="M49.356,19.591H29.7c-.15.182-3.612,4.477-4.216,5.23H46.422l5.54,11.454H22.925c.341.685,2.7,5.392,2.828,5.666H50.425l-8.964,12.13H23.2c.377.681,2.5,4.559,2.636,4.812H44.2c.165-.227,14.489-19.97,14.687-20.239-.149-.289-9.379-18.753-9.533-19.055M44.517,45.178H23.571l-5.54-11.453H47.07c-.342-.687-2.691-5.389-2.831-5.668H19.561l8.974-12.13H46.79c-.371-.681-2.491-4.558-2.632-4.81H25.789C25.627,11.342,11.3,31.085,11.1,31.35l9.534,19.063H40.3c.145-.185,3.61-4.478,4.217-5.235M35,0A35,35,0,1,0,70,35,35.039,35.039,0,0,0,35,0m0,65.918A30.917,30.917,0,1,1,65.916,35,30.95,30.95,0,0,1,35,65.918" transform="translate(0 0)"></path><path class="a" d="M88.292,63.989l-.485,1.782H86.18L88.3,58.83h2.05l2.163,6.942h-1.69l-.535-1.782Zm1.76-1.174-.431-1.473c-.114-.412-.238-.936-.34-1.338H89.25c-.094.412-.207.937-.31,1.338l-.423,1.473Z" transform="translate(-5.557 -3.793)"></path><path class="a" d="M96.172,64.157a3.963,3.963,0,0,0,1.739.433c.721,0,1.1-.3,1.1-.762,0-.422-.329-.681-1.164-.968-1.153-.412-1.916-1.051-1.916-2.07,0-1.185,1-2.081,2.627-2.081a4.062,4.062,0,0,1,1.771.35l-.351,1.257a3.23,3.23,0,0,0-1.442-.33c-.679,0-1.008.32-1.008.67,0,.443.38.639,1.286.989,1.226.453,1.792,1.091,1.792,2.08,0,1.165-.886,2.154-2.791,2.154a4.518,4.518,0,0,1-1.967-.433Z" transform="translate(-6.181 -3.786)"></path><path class="a" d="M104.315,64.157a3.963,3.963,0,0,0,1.739.433c.722,0,1.1-.3,1.1-.762,0-.422-.329-.681-1.165-.968-1.153-.412-1.915-1.051-1.915-2.07,0-1.185,1-2.081,2.627-2.081a4.062,4.062,0,0,1,1.771.35l-.351,1.257a3.224,3.224,0,0,0-1.442-.33c-.679,0-1.008.32-1.008.67,0,.443.38.639,1.286.989,1.226.453,1.793,1.091,1.793,2.08,0,1.165-.886,2.154-2.792,2.154A4.515,4.515,0,0,1,104,65.445Z" transform="translate(-6.706 -3.786)"></path><path class="a" d="M115.346,65.878a3.242,3.242,0,0,1-3.265-3.533,3.366,3.366,0,0,1,3.378-3.636,3.236,3.236,0,0,1,3.3,3.512c0,2.287-1.369,3.657-3.4,3.657Zm.072-1.247c1.062,0,1.668-1,1.668-2.358,0-1.246-.587-2.317-1.668-2.317s-1.69,1.05-1.69,2.348.629,2.328,1.679,2.328Z" transform="translate(-7.227 -3.786)"></path><path class="a" d="M127.578,65.579a4.615,4.615,0,0,1-1.772.3,3.311,3.311,0,0,1-3.634-3.492,3.53,3.53,0,0,1,3.79-3.677,4.091,4.091,0,0,1,1.709.309l-.329,1.236A3.312,3.312,0,0,0,126.023,60a2.288,2.288,0,0,0,.011,4.573,3.754,3.754,0,0,0,1.317-.225Z" transform="translate(-7.878 -3.786)"></path><rect class="a" width="1.565" height="6.941" transform="translate(122.806 55.037)"></rect><path class="a" d="M138.168,63.989l-.482,1.782h-1.629l2.122-6.942h2.049l2.164,6.942H140.7l-.535-1.782Zm1.762-1.174-.431-1.473c-.114-.412-.238-.936-.341-1.338h-.03c-.094.412-.207.937-.311,1.338l-.422,1.473Z" transform="translate(-8.773 -3.793)"></path><path class="a" d="M151.112,65.579a4.94,4.94,0,0,1-1.772.3l-.2.34a.8.8,0,0,1,.741.751c0,.671-.6.9-1.245.9a1.607,1.607,0,0,1-.835-.206l.206-.577a1.224,1.224,0,0,0,.566.166c.176,0,.361-.072.361-.257s-.237-.341-.8-.382l.412-.793a3.223,3.223,0,0,1-2.872-3.43,3.53,3.53,0,0,1,3.789-3.677,4,4,0,0,1,1.7.309l-.319,1.236A3.311,3.311,0,0,0,149.527,60a2.288,2.288,0,0,0,.009,4.573,3.765,3.765,0,0,0,1.319-.225Z" transform="translate(-9.394 -3.786)"></path><path class="a" d="M156.356,63.869l-.484,1.782h-1.628l2.121-6.942h2.06l2.163,6.942H158.9l-.535-1.782Zm-.329-5.582c-.031-.865.3-1.277.781-1.277a1.226,1.226,0,0,1,.671.206,1.073,1.073,0,0,0,.463.2c.174,0,.238-.094.279-.443h.7c.02.9-.278,1.256-.813,1.256a1.308,1.308,0,0,1-.67-.2,1,1,0,0,0-.454-.186c-.133,0-.227.145-.246.443Zm2.1,4.408-.433-1.473c-.123-.412-.247-.936-.349-1.338h-.021c-.1.412-.217.937-.33,1.338l-.412,1.473Z" transform="translate(-9.946 -3.673)"></path><path class="a" d="M167.127,65.878a3.242,3.242,0,0,1-3.264-3.533,3.365,3.365,0,0,1,3.378-3.636,3.235,3.235,0,0,1,3.295,3.512c0,2.287-1.37,3.657-3.4,3.657Zm.072-1.247c1.061,0,1.668-1,1.668-2.358,0-1.246-.587-2.317-1.668-2.317S165.51,61,165.51,62.3s.628,2.328,1.677,2.328Z" transform="translate(-10.567 -3.786)"></path><path class="a" d="M178.717,58.919a12.98,12.98,0,0,1,2.122-.144,3.3,3.3,0,0,1,2.133.567,1.986,1.986,0,0,1,.731,1.6,2.178,2.178,0,0,1-.629,1.648,3.294,3.294,0,0,1-2.266.731,2.772,2.772,0,0,1-.535-.04v2.491h-1.556Zm1.556,3.152a2.407,2.407,0,0,0,.526.041c.833,0,1.349-.422,1.349-1.123,0-.639-.433-1.02-1.226-1.02a2.843,2.843,0,0,0-.648.051Z" transform="translate(-11.524 -3.79)"></path><path class="a" d="M188.156,63.989l-.484,1.782h-1.628l2.123-6.942h2.049l2.164,6.942h-1.69l-.535-1.782Zm1.762-1.174-.432-1.473c-.113-.412-.237-.936-.341-1.338h-.03c-.093.412-.206.937-.31,1.338l-.423,1.473Z" transform="translate(-11.997 -3.793)"></path><path class="a" d="M196,58.929a12.437,12.437,0,0,1,2.091-.154,3.475,3.475,0,0,1,2.246.557,1.741,1.741,0,0,1,.649,1.452,1.84,1.84,0,0,1-1.226,1.7v.032a1.732,1.732,0,0,1,.926,1.287c.216.793.422,1.7.556,1.966h-1.606a8.949,8.949,0,0,1-.474-1.617c-.2-.875-.494-1.1-1.142-1.111h-.464v2.728H196Zm1.556,2.977h.617c.783,0,1.247-.391,1.247-1,0-.628-.433-.957-1.154-.957a3.145,3.145,0,0,0-.711.051Z" transform="translate(-12.639 -3.79)"></path><path class="a" d="M206.4,63.989l-.484,1.782h-1.629l2.123-6.942h2.05l2.163,6.942h-1.69l-.536-1.782Zm1.761-1.174-.432-1.473c-.113-.412-.238-.936-.34-1.338h-.031c-.094.412-.206.937-.309,1.338l-.423,1.473Z" transform="translate(-13.173 -3.793)"></path><path class="a" d="M221.591,65.878a3.242,3.242,0,0,1-3.264-3.533,3.365,3.365,0,0,1,3.378-3.636A3.236,3.236,0,0,1,225,62.221c0,2.287-1.37,3.657-3.4,3.657Zm.072-1.247c1.06,0,1.668-1,1.668-2.358,0-1.246-.587-2.317-1.668-2.317s-1.69,1.05-1.69,2.348.629,2.328,1.679,2.328Z" transform="translate(-14.079 -3.786)"></path><path class="a" d="M237.312,62.837h-2.554v1.647h2.852v1.287h-4.418V58.831h4.273v1.286h-2.708V61.56h2.554Z" transform="translate(-15.037 -3.793)"></path><path class="a" d="M241.257,65.772V58.831h1.834l1.442,2.543a22.163,22.163,0,0,1,1.134,2.379h.02a28.659,28.659,0,0,1-.123-2.9V58.831H247v6.941h-1.647l-1.483-2.677a24.31,24.31,0,0,1-1.2-2.451h-.041c.051.926.072,1.906.072,3.038v2.091Z" transform="translate(-15.557 -3.793)"></path><path class="a" d="M251.083,64.157a3.964,3.964,0,0,0,1.74.433c.721,0,1.1-.3,1.1-.762,0-.422-.33-.681-1.164-.968-1.154-.412-1.917-1.051-1.917-2.07,0-1.185,1-2.081,2.628-2.081a4.057,4.057,0,0,1,1.77.35l-.35,1.257a3.235,3.235,0,0,0-1.443-.33c-.678,0-1.009.32-1.009.67,0,.443.381.639,1.287.989,1.226.453,1.792,1.091,1.792,2.08,0,1.165-.885,2.154-2.79,2.154a4.52,4.52,0,0,1-1.968-.433Z" transform="translate(-16.17 -3.786)"></path><rect class="a" width="1.565" height="6.941" transform="translate(242.489 55.037)"></rect><path class="a" d="M264.527,65.772V58.831h1.834l1.442,2.543a21.8,21.8,0,0,1,1.134,2.379h.02a28.939,28.939,0,0,1-.123-2.9V58.831h1.442v6.941h-1.648l-1.483-2.677a24.474,24.474,0,0,1-1.2-2.451H265.9c.051.926.072,1.906.072,3.038v2.091Z" transform="translate(-17.058 -3.793)"></path><path class="a" d="M277.245,65.878a3.242,3.242,0,0,1-3.264-3.533,3.365,3.365,0,0,1,3.377-3.636,3.236,3.236,0,0,1,3.3,3.512c0,2.287-1.369,3.657-3.4,3.657Zm.073-1.247c1.061,0,1.667-1,1.667-2.358,0-1.246-.587-2.317-1.667-2.317s-1.69,1.05-1.69,2.348.628,2.328,1.678,2.328Z" transform="translate(-17.667 -3.786)"></path></g></g></svg> 