<?xml version="1.0" encoding="UTF-8"?> <svg xmlns="http://www.w3.org/2000/svg" xmlns:xlink="http://www.w3.org/1999/xlink" width="80" height="80.002" viewBox="0 0 80 80.002"><defs><style>.a{fill:#000;}.b{clip-path:url(#a);}</style><clipPath id="a"><rect class="a" width="80" height="80.002"></rect></clipPath></defs><g transform="translate(0 0)"><g class="b" transform="translate(0 0)"><path class="a" d="M56.408,22.39H33.938c-.171.208-4.128,5.117-4.819,5.978H53.055l6.332,13.091H26.2c.389.783,3.081,6.163,3.232,6.476h28.2L47.385,61.8H26.514c.431.778,2.858,5.21,3.013,5.5H50.518c.188-.26,16.56-22.823,16.785-23.131-.17-.33-10.719-21.433-10.9-21.777m-5.53,29.243H26.939L20.608,38.544H53.8c-.391-.785-3.075-6.159-3.235-6.478h-28.2L32.612,18.2H53.476c-.424-.778-2.847-5.209-3.008-5.5H29.474c-.186.258-16.559,22.822-16.785,23.124l10.9,21.787H46.059c.166-.212,4.126-5.118,4.82-5.983M40,0A40,40,0,1,0,80,40,40.046,40.046,0,0,0,40,0m0,75.337A35.335,35.335,0,1,1,75.334,40,35.373,35.373,0,0,1,40,75.337" transform="translate(0 0)"></path></g></g></svg> 